<?xml version="1.0" standalone="no"?>
<!DOCTYPE svg PUBLIC "-//W3C//DTD SVG 20010904//EN"
 "http://www.w3.org/TR/2001/REC-SVG-20010904/DTD/svg10.dtd">
<svg version="1.0" xmlns="http://www.w3.org/2000/svg"
 width="100.000000pt" height="100.000000pt" viewBox="0 0 100.000000 100.000000"
 preserveAspectRatio="xMidYMid meet">
<metadata>
Created by potrace 1.14, written by Peter Selinger 2001-2017
</metadata>
<g transform="translate(0.000000,100.000000) scale(0.100000,-0.100000)"
fill="#000000" stroke="none">
<path d="M17 982 c-15 -17 -17 -65 -17 -479 l0 -460 23 -21 c23 -22 25 -22
484 -22 433 0 461 1 476 18 15 17 17 65 17 488 0 352 -3 473 -12 482 -9 9
-130 12 -483 12 -444 0 -473 -1 -488 -18z m289 -235 c77 -16 112 -39 130 -84
14 -31 13 -38 -3 -71 -12 -24 -32 -43 -60 -57 -43 -21 -55 -35 -28 -35 32 0
95 -41 111 -72 20 -38 14 -101 -13 -130 -29 -33 -83 -55 -160 -67 -78 -12
-183 -14 -229 -5 l-29 5 3 259 3 259 32 4 c71 9 185 6 243 -6z m622 6 l53 -6
-7 -256 c-4 -173 -10 -258 -18 -263 -17 -11 -158 -9 -239 3 -124 19 -187 69
-187 148 0 41 62 108 109 117 41 9 39 17 -9 39 -22 10 -46 28 -55 41 -19 30
-19 83 0 110 40 58 192 87 353 67z"/>
<path d="M148 713 l-38 -4 0 -90 0 -89 75 0 c82 0 149 21 165 51 18 33 12 76
-15 98 -35 26 -115 41 -187 34z"/>
<path d="M110 375 l0 -105 76 0 c126 0 186 29 200 96 4 23 0 37 -20 60 -32 39
-83 54 -180 54 l-76 0 0 -105z"/>
<path d="M754 709 c-28 -4 -60 -12 -72 -18 -46 -24 -56 -85 -19 -119 34 -32
71 -42 158 -42 l80 0 -3 88 -3 87 -45 5 c-25 3 -68 2 -96 -1z"/>
<path d="M690 464 c-56 -24 -70 -42 -70 -90 0 -34 5 -47 26 -63 40 -31 91 -43
174 -39 l75 3 3 103 3 102 -88 0 c-56 -1 -101 -6 -123 -16z"/>
</g>
</svg>
