<?xml version="1.0" encoding="UTF-8"?>
<svg width="400px" height="400px" viewBox="0 0 400 400" version="1.1" xmlns="http://www.w3.org/2000/svg" xmlns:xlink="http://www.w3.org/1999/xlink">
    <title>Artboard</title>
    <g id="Artboard" stroke="none" stroke-width="1" fill="none" fill-rule="evenodd">
        <g id="magnifier" fill="#FFFFFF" fill-rule="nonzero">
            <path d="M396.121955,337.657198 L318.464757,260 C303.599985,283.620058 283.620058,303.599985 260,318.464757 L337.657198,396.121955 C342.829486,401.292682 351.213765,401.292682 356.386053,396.121955 L396.121955,356.386053 C401.292682,351.213765 401.292682,342.829486 396.121955,337.657198 Z" id="Path"></path>
            <path d="M160,320 C71.63444,320 0,248.36556 0,160 C0,71.63444 71.63444,0 160,0 C248.36556,0 320,71.63444 320,160 C319.904469,248.325959 248.325959,319.904469 160,320 Z M160,26.6666667 C86.3620334,26.6666667 26.6666667,86.3620334 26.6666667,160 C26.6666667,233.637967 86.3620334,293.333333 160,293.333333 C233.637967,293.333333 293.333333,233.637967 293.333333,160 C293.252502,86.3955409 233.604459,26.7474983 160,26.6666667 Z" id="Shape"></path>
        </g>
    </g>
</svg>